# xmcd
#
# Track frame offsets:
#	150
#	8707
#	19404
#	29755
#	38288
#	50273
#	57072
#	67468
#	77932
#	89688
#
# Disc length: 1309 seconds
#
# Revision: 0
# Processed by: cddbd v1.4PL0 Copyright (c) Steve Scherf et al.
# Submitted via: EasyCDDAExtractor 4.6.0.1
#
DISCID=82051b0a
DTITLE=Waylon Jennings - The Best Of Waylon Jennings
DYEAR=2000
DGENRE=Country
TTITLE0=Abilene
TTITLE1=Dream baby
TTITLE2=White Lightning
TTITLE3=Joe Blon
TTITLE4=Don't think Twice, It's Alright
TTITLE5=It's So Easy
TTITLE6=Lorena
TTITLE7=Money
TTITLE8=Crying
TTITLE9=Love's Gonna Live Here
EXTD=Applause\nBarcode # 9 316797 408822\n
EXTT0=
EXTT1=
EXTT2=
EXTT3=
EXTT4=
EXTT5=
EXTT6=
EXTT7=
EXTT8=
EXTT9=
PLAYORDER=
